# Created by Open3D 
# object name: mesh
# number of vertices: 179
# number of triangles: 313
v 62.7861 -164.681 -309.395 0 0 0
vn 0.653187 -0.544183 0.52651
v 82.4872 -142.944 -309.395 0 0 0
vn 0.558002 -0.712564 0.425307
v 110.89 -123.434 -309.395 0 0 0
vn 0.56788 -0.711362 0.414098
v 123.734 -110.02 -309.395 0 0 0
vn 0.69549 -0.574901 0.431025
v 138.793 -82.1864 -309.395 0 0 0
vn 0.826303 -0.401106 0.395395
v 161.741 -40.9391 -309.395 0 0 0
vn 0.769199 -0.449038 0.45464
v 164.982 -37.3275 -309.395 0 0 0
vn 0.782652 -0.383206 0.490519
v 27.0884 -164.681 -268.148 0 0 0
vn 0.528898 -0.722998 0.444457
v 41.2399 -150.629 -268.148 0 0 0
vn 0.573006 -0.709334 0.410499
v 80.522 -123.434 -268.148 0 0 0
vn 0.537701 -0.776842 0.327711
v 82.4872 -122.08 -268.148 0 0 0
vn 0.644433 -0.71253 0.277501
v 121.579 -82.1864 -268.148 0 0 0
vn 0.70171 -0.656884 0.275874
v 123.734 -77.9262 -268.148 0 0 0
vn 0.882078 -0.369795 0.291873
v 137.358 -40.9391 -268.148 0 0 0
vn 0.852471 -0.347476 0.390582
v 152.845 0.308151 -268.148 0 0 0
vn 0.882981 -0.156881 0.442417
v 152.011 41.5554 -268.148 0 0 0
vn 0.874474 0.0306502 0.484103
v 150.92 82.8027 -268.148 0 0 0
vn 0.834134 0.0108602 0.551455
v 155.467 124.05 -268.148 0 0 0
vn 0.743265 -0.10078 0.661363
v 164.982 158.654 -268.148 0 0 0
vn 0.696505 -0.0741674 0.713708
v 41.2399 -164.681 -280.691 0 0 0
vn 0.652907 -0.504578 0.564901
v 82.4872 -123.434 -270.452 0 0 0
vn 0.584569 -0.694005 0.420281
v 123.734 -82.1864 -272.132 0 0 0
vn 0.76974 -0.495717 0.402199
v 164.982 0.308151 -282.346 0 0 0
vn 0.772593 -0.224417 0.593917
v 164.982 41.5554 -280.972 0 0 0
vn 0.681258 -0.00947523 0.731982
v 164.982 82.8027 -279.714 0 0 0
vn 0.616705 -0.0601752 0.784891
v 164.982 124.05 -274.573 0 0 0
vn 0.555289 -0.125351 0.822156
v -16.3076 -164.681 -226.9 0 0 0
vn 0.424225 -0.76771 0.480265
v -0.00743103 -153.648 -226.9 0 0 0
vn 0.418799 -0.800572 0.428593
v 41.2399 -131.067 -226.9 0 0 0
vn 0.477985 -0.772172 0.418666
v 55.9412 -123.434 -226.9 0 0 0
vn 0.508406 -0.792103 0.337781
v 82.4872 -106.016 -226.9 0 0 0
vn 0.578775 -0.720038 0.382837
v 106.349 -82.1864 -226.9 0 0 0
vn 0.751149 -0.551238 0.363196
v 123.734 -46.1512 -226.9 0 0 0
vn 0.84732 -0.396522 0.353296
v 125.299 -40.9391 -226.9 0 0 0
vn 0.91732 -0.285598 0.277411
v 137.199 0.308151 -226.9 0 0 0
vn 0.934543 -0.118014 0.335712
v 133.589 41.5554 -226.9 0 0 0
vn 0.919179 0.0809519 0.385432
v 128.906 82.8027 -226.9 0 0 0
vn 0.899546 0.0881892 0.427832
v 126.156 124.05 -226.9 0 0 0
vn 0.853003 0.016179 0.521654
v 123.734 139.742 -226.9 0 0 0
vn 0.671954 0.178072 0.718866
v 114.116 165.297 -226.9 0 0 0
vn 0.466891 0.175704 0.866684
v -0.00743103 -164.681 -241.556 0 0 0
vn 0.443562 -0.747532 0.494418
v 123.734 165.297 -232.104 0 0 0
vn 0.638955 0.0978175 0.762999
v 164.982 165.297 -266.622 0 0 0
vn 0.632175 -0.173337 0.755188
v -80.5595 -164.681 -185.653 0 0 0
vn 0.368565 -0.583188 0.723914
v -41.2547 -139.88 -185.653 0 0 0
vn 0.229876 -0.7356 0.637221
v -0.00743103 -130.747 -185.653 0 0 0
vn 0.301181 -0.810211 0.50284
v 22.2763 -123.434 -185.653 0 0 0
vn 0.400755 -0.820699 0.407246
v 41.2399 -111.864 -185.653 0 0 0
vn 0.549175 -0.728973 0.408663
v 77.7139 -82.1864 -185.653 0 0 0
vn 0.595547 -0.697591 0.398359
v 82.4872 -76.644 -185.653 0 0 0
vn 0.723142 -0.525742 0.447952
v 106.33 -40.9391 -185.653 0 0 0
vn 0.800405 -0.420537 0.427201
v 123.618 0.308151 -185.653 0 0 0
vn 0.89729 -0.20618 0.390335
v 117.066 41.5554 -185.653 0 0 0
vn 0.889618 0.187831 0.416293
v 107.141 82.8027 -185.653 0 0 0
vn 0.813777 0.274627 0.512198
v 82.4872 131.809 -185.653 0 0 0
vn 0.61719 0.497406 0.609642
v 55.1145 165.297 -185.653 0 0 0
vn 0.602148 0.551883 0.576925
v 88.4073 124.05 -185.653 0 0 0
vn 0.685283 0.307303 0.660266
v -41.2547 -164.681 -208.65 0 0 0
vn 0.31177 -0.708112 0.633543
v 41.2399 -123.434 -207.97 0 0 0
vn 0.467436 -0.801117 0.373784
v 82.4872 -82.1864 -191.302 0 0 0
vn 0.598241 -0.659718 0.45484
v 123.734 -40.9391 -221.968 0 0 0
vn 0.852495 -0.3457 0.392101
v 123.734 0.308151 -185.93 0 0 0
vn 0.92937 -0.133077 0.344328
v 123.734 41.5554 -199.521 0 0 0
vn 0.920655 0.124057 0.370141
v 123.734 82.8027 -214.323 0 0 0
vn 0.876649 0.140052 0.460296
v 82.4872 165.297 -209.887 0 0 0
vn 0.559925 0.419992 0.714206
v 123.734 124.05 -223.048 0 0 0
vn 0.761138 0.218108 0.610817
v -158.307 -164.681 -144.406 0 0 0
vn 0.334692 -0.14581 0.930978
v -164.997 -125.946 -144.406 0 0 0
vn 0.157603 0.0312151 0.987009
v -123.749 -107.85 -144.406 0 0 0
vn -0.0592818 -0.257892 0.964353
v -152.87 -82.1864 -144.406 0 0 0
vn -0.22074 -0.294196 0.929905
v -82.502 -110.939 -144.406 0 0 0
vn -0.0909851 -0.598085 0.796251
v -41.2547 -114.007 -144.406 0 0 0
vn -0.0575979 -0.7664 0.639776
v -0.00743103 -115.396 -144.406 0 0 0
vn 0.208979 -0.829791 0.517469
v -164.997 -75.9153 -144.406 0 0 0
vn -0.258761 -0.502215 0.82512
v 41.2399 -91.3389 -144.406 0 0 0
vn 0.474097 -0.778294 0.411691
v 51.1172 -82.1864 -144.406 0 0 0
vn 0.650853 -0.604717 0.459029
v 82.4872 -43.9128 -144.406 0 0 0
vn 0.69069 -0.562331 0.454677
v 84.6978 -40.9391 -144.406 0 0 0
vn 0.79102 -0.436511 0.428655
v 107.835 0.308151 -144.406 0 0 0
vn 0.880312 -0.0792454 0.46773
v -0.00743103 163.348 -144.406 0 0 0
vn 0.37828 0.750245 0.542251
v -8.25359 165.297 -144.406 0 0 0
vn 0.136699 0.7777 0.613592
v 97.7726 41.5554 -144.406 0 0 0
vn 0.834402 0.231997 0.499951
v 83.1596 82.8027 -144.406 0 0 0
vn 0.806448 0.288329 0.516245
v 82.4872 84.1476 -144.406 0 0 0
vn 0.738519 0.434486 0.515569
v 57.0471 124.05 -144.406 0 0 0
vn 0.67737 0.499902 0.539692
v 41.2399 138.391 -144.406 0 0 0
vn 0.474259 0.681713 0.557087
v -123.749 -164.681 -165.79 0 0 0
vn 0.325046 -0.435102 0.839662
v -164.997 -123.434 -144.64 0 0 0
vn -0.0132927 -0.0606617 0.99807
v -123.749 -123.434 -149.308 0 0 0
vn 0.199086 -0.284956 0.937638
v -82.502 -164.681 -184.695 0 0 0
vn 0.347529 -0.555897 0.755117
v -82.502 -123.434 -154.318 0 0 0
vn 0.206729 -0.60744 0.766994
v -164.997 -82.1864 -147.214 0 0 0
vn -0.224598 -0.003994 0.974443
v -41.2547 -123.434 -158.89 0 0 0
vn 0.0499285 -0.863778 0.501392
v -0.00743103 -123.434 -164.906 0 0 0
vn 0.265494 -0.874321 0.406294
v -0.00743103 165.297 -146.738 0 0 0
vn 0.402288 0.675469 0.617985
v 82.4872 124.05 -179.115 0 0 0
vn 0.750111 0.422673 0.508606
v 41.2399 165.297 -173.588 0 0 0
vn 0.431623 0.663187 0.611461
v -0.00743103 -88.0434 -103.158 0 0 0
vn -2.09941e-05 -0.821253 0.570564
v -6.36937 -82.1864 -103.158 0 0 0
vn -0.0855968 -0.799152 0.595003
v -123.749 -50.005 -103.158 0 0 0
vn -0.37766 -0.628697 0.679789
v -132.486 -40.9391 -103.158 0 0 0
vn -0.498543 -0.335314 0.799387
v -82.502 -72.5116 -103.158 0 0 0
vn -0.266843 -0.75972 0.592976
v -157.36 0.308151 -103.158 0 0 0
vn -0.649878 -0.0754258 0.756287
v -41.2547 -80.9158 -103.158 0 0 0
vn -0.138517 -0.794354 0.591452
v 12.6678 -82.1864 -103.158 0 0 0
vn 0.49553 -0.68641 0.532251
v 41.2399 -53.8461 -103.158 0 0 0
vn 0.623541 -0.580764 0.523364
v 51.4113 -40.9391 -103.158 0 0 0
vn 0.682099 -0.486082 0.54632
v 75.881 0.308151 -103.158 0 0 0
vn 0.785516 -0.253739 0.56443
v -148.869 41.5554 -103.158 0 0 0
vn -0.523017 0.148186 0.839341
v -136.085 82.8027 -103.158 0 0 0
vn -0.375178 0.126976 0.918215
v -123.749 104.956 -103.158 0 0 0
vn -0.300582 0.339345 0.891345
v -89.2074 124.05 -103.158 0 0 0
vn -0.131627 0.485858 0.864069
v -82.502 125.332 -103.158 0 0 0
vn 0.025706 0.626421 0.779061
v -41.2547 128.881 -103.158 0 0 0
vn -0.0507347 0.690212 0.721827
v -0.00743103 131.345 -103.158 0 0 0
vn 0.0863935 0.754912 0.65011
v 64.9615 41.5554 -103.158 0 0 0
vn 0.777209 0.23147 0.585122
v 50.7638 82.8027 -103.158 0 0 0
vn 0.743854 0.337692 0.576754
v 41.2399 99.1969 -103.158 0 0 0
vn 0.659874 0.501086 0.559892
v 18.568 124.05 -103.158 0 0 0
vn 0.477752 0.67131 0.566653
v -164.997 -164.681 -141.476 0 0 0
vn 0.398725 0.0664627 0.914659
v -123.749 -82.1864 -132.747 0 0 0
vn -0.299825 -0.57836 0.758686
v -82.502 -82.1864 -116.119 0 0 0
vn -0.213187 -0.71654 0.66417
v -41.2547 -82.1864 -104.606 0 0 0
vn -0.105916 -0.775634 0.622233
v -164.997 -40.9391 -122.069 0 0 0
vn -0.410066 -0.491563 0.768253
v -164.997 0.308151 -107.074 0 0 0
vn -0.465988 -0.162952 0.869656
v 41.2399 -82.1864 -131.998 0 0 0
vn 0.545352 -0.65828 0.518902
v 82.4872 -40.9391 -141.498 0 0 0
vn 0.681281 -0.477003 0.55527
v 82.4872 0.308151 -110.707 0 0 0
vn 0.787763 -0.027997 0.615342
v -164.997 41.5554 -110.664 0 0 0
vn -0.396776 0.0982889 0.912638
v -164.997 82.8027 -114.74 0 0 0
vn -0.370363 0.0900773 0.924509
v -164.997 124.05 -118.701 0 0 0
vn -0.176987 0.227163 0.957639
v -123.749 124.05 -109.88 0 0 0
vn -0.186564 0.371211 0.909613
v -164.997 165.297 -124.213 0 0 0
vn 0.0852801 0.132152 0.987554
v -123.749 165.297 -127.781 0 0 0
vn -0.0524356 0.381994 0.922676
v -82.502 165.297 -130.765 0 0 0
vn 0.0834257 0.557616 0.825896
v -41.2547 165.297 -137.722 0 0 0
vn 0.0375366 0.683049 0.729407
v 82.4872 41.5554 -124.253 0 0 0
vn 0.75949 0.247466 0.60161
v 82.4872 82.8027 -143.536 0 0 0
vn 0.754861 0.280479 0.592888
v 41.2399 124.05 -125.937 0 0 0
vn 0.593982 0.583133 0.554203
v -82.502 -41.5703 -61.9112 0 0 0
vn -0.139829 -0.790783 0.595911
v -83.6368 -40.9391 -61.9112 0 0 0
vn -0.515125 -0.595538 0.616425
v -117.411 0.308151 -61.9112 0 0 0
vn -0.643614 -0.172413 0.745678
v -41.2547 -48.431 -61.9112 0 0 0
vn -0.127682 -0.774925 0.619022
v -0.00743103 -53.947 -61.9112 0 0 0
vn 0.11237 -0.752086 0.649415
v 21.1559 -40.9391 -61.9112 0 0 0
vn 0.567872 -0.60192 0.56144
v 41.2399 -16.9467 -61.9112 0 0 0
vn 0.647728 -0.446126 0.617592
v 47.014 0.308151 -61.9112 0 0 0
vn 0.825905 0.119001 0.551108
v -99.0403 41.5554 -61.9112 0 0 0
vn -0.620979 0.324425 0.713536
v -82.502 61.7059 -61.9112 0 0 0
vn -0.43158 0.478952 0.764424
v -41.2547 81.9766 -61.9112 0 0 0
vn -0.233124 0.470546 0.851022
v -41.1735 82.8027 -61.9112 0 0 0
vn -0.22272 0.605819 0.763793
v -0.00743103 97.1363 -61.9112 0 0 0
vn 0.026309 0.6967 0.71688
v 41.2399 36.4616 -61.9112 0 0 0
vn 0.677318 0.218255 0.70257
v 36.5718 41.5554 -61.9112 0 0 0
vn 0.687692 0.299507 0.661344
v 19.2535 82.8027 -61.9112 0 0 0
vn 0.614025 0.425776 0.664596
v -0.00743103 -82.1864 -96.6068 0 0 0
vn -0.0566863 -0.795 0.603955
v -123.749 -40.9391 -95.6479 0 0 0
vn -0.560344 -0.524473 0.641048
v -123.749 0.308151 -70.3874 0 0 0
vn -0.707161 -0.00926393 0.706992
v 41.2399 -40.9391 -90.0445 0 0 0
vn 0.720886 -0.504843 0.474823
v -123.749 41.5554 -84.0563 0 0 0
vn -0.592988 0.270352 0.758468
v -123.749 82.8027 -96.4369 0 0 0
vn -0.486602 0.240185 0.839958
v -82.502 82.8027 -75.0755 0 0 0
vn -0.309181 0.480765 0.820532
v -41.2547 82.8027 -62.4788 0 0 0
vn -0.22931 0.638885 0.734331
v -82.502 124.05 -102.144 0 0 0
vn -0.0840871 0.567813 0.818852
v -41.2547 124.05 -98.1734 0 0 0
vn -0.153264 0.65819 0.737087
v -0.00743103 124.05 -92.6849 0 0 0
vn 0.0531006 0.768607 0.637513
v 41.2399 41.5554 -70.3025 0 0 0
vn 0.804795 0.255562 0.535717
v 41.2399 82.8027 -91.1177 0 0 0
vn 0.759876 0.329341 0.560467
v -82.502 -40.9391 -61.2541 0 0 0
vn -0.275479 -0.550127 0.788335
v -82.502 0.308151 -32.9248 0 0 0
vn -0.413383 -0.121567 0.902405
v -41.2547 -40.9391 -53.9749 0 0 0
vn -0.118005 -0.580209 0.805873
v -0.00743103 -40.9391 -47.916 0 0 0
vn 0.233482 -0.551998 0.80049
v -41.2547 0.308151 -27.0257 0 0 0
vn -0.149783 -0.150625 0.977178
v -0.00743103 0.308151 -22.4381 0 0 0
vn 0.184745 -0.187036 0.964825
v 41.2399 0.308151 -53.8248 0 0 0
vn 0.62061 0.0810423 0.77992
v -82.502 41.5554 -50.1448 0 0 0
vn -0.330337 0.37747 0.865097
v -41.2547 41.5554 -40.4612 0 0 0
vn -0.1865 0.363101 0.912894
v -0.00743103 41.5554 -33.0609 0 0 0
vn 0.351291 0.284379 0.892033
v -0.00743103 82.8027 -50.4482 0 0 0
vn -0.0565195 0.460252 0.885987
f 8//8 20//20 9//9
f 10//10 9//9 21//21
f 9//9 2//2 21//21
f 9//9 1//1 2//2
f 9//9 20//20 1//1
f 10//10 21//21 11//11
f 21//21 2//2 3//3
f 12//12 21//21 22//22
f 21//21 4//4 22//22
f 21//21 3//3 4//4
f 12//12 11//11 21//21
f 22//22 4//4 5//5
f 12//12 22//22 13//13
f 14//14 5//5 6//6
f 14//14 22//22 5//5
f 14//14 13//13 22//22
f 15//15 14//14 23//23
f 14//14 7//7 23//23
f 14//14 6//6 7//7
f 23//23 24//24 16//16
f 16//16 15//15 23//23
f 24//24 25//25 17//17
f 17//17 16//16 24//24
f 25//25 26//26 18//18
f 18//18 17//17 25//25
f 18//18 26//26 19//19
f 27//27 41//41 28//28
f 29//29 8//8 9//9
f 29//29 41//41 8//8
f 29//29 28//28 41//41
f 9//9 10//10 30//30
f 30//30 29//29 9//9
f 30//30 11//11 31//31
f 10//10 11//11 30//30
f 11//11 12//12 32//32
f 32//32 31//31 11//11
f 32//32 13//13 33//33
f 12//12 13//13 32//32
f 13//13 14//14 34//34
f 34//34 33//33 13//13
f 14//14 15//15 35//35
f 35//35 34//34 14//14
f 35//35 16//16 36//36
f 15//15 16//16 35//35
f 36//36 17//17 37//37
f 16//16 17//17 36//36
f 17//17 18//18 38//38
f 38//38 37//37 17//17
f 39//39 42//42 40//40
f 39//39 19//19 42//42
f 19//19 43//43 42//42
f 39//39 18//18 19//19
f 39//39 38//38 18//18
f 44//44 58//58 45//45
f 46//46 27//27 28//28
f 46//46 58//58 27//27
f 46//46 45//45 58//58
f 47//47 28//28 59//59
f 28//28 29//29 59//59
f 47//47 46//46 28//28
f 59//59 29//29 30//30
f 47//47 59//59 48//48
f 49//49 48//48 60//60
f 48//48 31//31 60//60
f 48//48 59//59 31//31
f 59//59 30//30 31//31
f 60//60 31//31 32//32
f 49//49 60//60 50//50
f 51//51 33//33 61//61
f 51//51 32//32 33//33
f 51//51 50//50 32//32
f 50//50 60//60 32//32
f 61//61 33//33 34//34
f 51//51 62//62 52//52
f 61//61 62//62 51//51
f 62//62 34//34 35//35
f 61//61 34//34 62//62
f 52//52 63//63 53//53
f 62//62 63//63 52//52
f 62//62 35//35 36//36
f 36//36 63//63 62//62
f 53//53 64//64 54//54
f 63//63 64//64 53//53
f 63//63 36//36 37//37
f 37//37 64//64 63//63
f 55//55 65//65 56//56
f 54//54 66//66 57//57
f 64//64 66//66 54//54
f 64//64 37//37 38//38
f 38//38 66//66 64//64
f 55//55 39//39 65//65
f 39//39 40//40 65//65
f 55//55 57//57 39//39
f 57//57 66//66 39//39
f 66//66 38//38 39//39
f 68//68 89//89 88//88
f 68//68 67//67 89//89
f 67//67 87//87 89//89
f 87//87 90//90 91//91
f 91//91 89//89 87//87
f 69//69 88//88 89//89
f 69//69 70//70 88//88
f 70//70 92//92 88//88
f 89//89 91//91 71//71
f 71//71 69//69 89//89
f 93//93 91//91 45//45
f 91//91 44//44 45//45
f 91//91 90//90 44//44
f 45//45 46//46 94//94
f 94//94 93//93 45//45
f 91//91 93//93 72//72
f 72//72 71//71 91//91
f 93//93 94//94 73//73
f 73//73 72//72 93//93
f 74//74 92//92 70//70
f 94//94 46//46 47//47
f 75//75 47//47 48//48
f 75//75 94//94 47//47
f 75//75 73//73 94//94
f 48//48 49//49 76//76
f 76//76 75//75 48//48
f 76//76 50//50 77//77
f 49//49 50//50 76//76
f 50//50 51//51 78//78
f 78//78 77//77 50//50
f 78//78 52//52 79//79
f 51//51 52//52 78//78
f 80//80 95//95 81//81
f 79//79 53//53 82//82
f 52//52 53//53 79//79
f 82//82 54//54 83//83
f 53//53 54//54 82//82
f 84//84 96//96 85//85
f 86//86 95//95 80//80
f 97//97 95//95 86//86
f 86//86 56//56 97//97
f 86//86 85//85 56//56
f 85//85 55//55 56//56
f 85//85 96//96 55//55
f 84//84 54//54 96//96
f 54//54 57//57 96//96
f 84//84 83//83 54//54
f 96//96 57//57 55//55
f 120//120 67//67 68//68
f 70//70 69//69 121//121
f 121//121 71//71 122//122
f 69//69 71//71 121//121
f 122//122 72//72 123//123
f 71//71 72//72 122//122
f 98//98 99//99 73//73
f 99//99 72//72 73//73
f 99//99 123//123 72//72
f 100//100 124//124 121//121
f 124//124 70//70 121//121
f 124//124 74//74 70//70
f 100//100 101//101 124//124
f 100//100 122//122 102//102
f 121//121 122//122 100//100
f 125//125 124//124 101//101
f 101//101 103//103 125//125
f 122//122 123//123 104//104
f 104//104 102//102 122//122
f 104//104 123//123 99//99
f 105//105 73//73 126//126
f 73//73 75//75 126//126
f 105//105 98//98 73//73
f 126//126 75//75 76//76
f 105//105 126//126 106//106
f 107//107 76//76 127//127
f 76//76 77//77 127//127
f 107//107 126//126 76//76
f 107//107 106//106 126//126
f 127//127 128//128 108//108
f 108//108 107//107 127//127
f 127//127 77//77 78//78
f 128//128 78//78 79//79
f 127//127 78//78 128//128
f 109//109 125//125 103//103
f 129//129 125//125 109//109
f 110//110 129//129 109//109
f 130//130 129//129 110//110
f 110//110 131//131 130//130
f 110//110 111//111 131//131
f 111//111 132//132 131//131
f 112//112 132//132 111//111
f 131//131 132//132 134//134
f 134//134 133//133 131//131
f 112//112 134//134 132//132
f 112//112 135//135 134//134
f 112//112 113//113 135//135
f 136//136 135//135 113//113
f 113//113 114//114 136//136
f 114//114 115//115 136//136
f 115//115 81//81 136//136
f 115//115 80//80 81//81
f 128//128 137//137 116//116
f 116//116 108//108 128//128
f 137//137 138//138 117//117
f 117//117 116//116 137//137
f 128//128 79//79 82//82
f 82//82 137//137 128//128
f 137//137 82//82 83//83
f 83//83 138//138 137//137
f 118//118 139//139 119//119
f 118//118 85//85 139//139
f 118//118 117//117 85//85
f 117//117 84//84 85//85
f 117//117 138//138 84//84
f 115//115 119//119 80//80
f 119//119 86//86 80//80
f 119//119 139//139 86//86
f 139//139 85//85 86//86
f 138//138 83//83 84//84
f 99//99 98//98 156//156
f 101//101 100//100 157//157
f 140//140 141//141 102//102
f 141//141 157//157 102//102
f 157//157 100//100 102//102
f 103//103 157//157 158//158
f 101//101 157//157 103//103
f 142//142 157//157 141//141
f 158//158 157//157 142//142
f 102//102 104//104 143//143
f 143//143 140//140 102//102
f 144//144 143//143 156//156
f 143//143 104//104 156//156
f 104//104 99//99 156//156
f 156//156 98//98 105//105
f 145//145 106//106 159//159
f 145//145 105//105 106//106
f 145//145 144//144 105//105
f 144//144 156//156 105//105
f 159//159 106//106 107//107
f 145//145 159//159 146//146
f 147//147 146//146 108//108
f 146//146 159//159 108//108
f 159//159 107//107 108//108
f 103//103 158//158 160//160
f 160//160 109//109 103//103
f 148//148 158//158 142//142
f 160//160 158//158 148//148
f 109//109 160//160 161//161
f 161//161 110//110 109//109
f 148//148 149//149 160//160
f 149//149 162//162 160//160
f 162//162 161//161 160//160
f 150//150 162//162 149//149
f 163//163 162//162 150//150
f 151//151 163//163 150//150
f 111//111 110//110 161//161
f 164//164 112//112 162//162
f 112//112 111//111 162//162
f 111//111 161//161 162//162
f 113//113 112//112 164//164
f 162//162 163//163 165//165
f 165//165 164//164 162//162
f 151//151 152//152 163//163
f 152//152 165//165 163//163
f 152//152 166//166 165//165
f 114//114 164//164 165//165
f 113//113 164//164 114//114
f 115//115 165//165 166//166
f 114//114 165//165 115//115
f 153//153 167//167 154//154
f 153//153 147//147 167//167
f 147//147 116//116 167//167
f 147//147 108//108 116//116
f 154//154 168//168 155//155
f 167//167 168//168 154//154
f 167//167 116//116 117//117
f 117//117 168//168 167//167
f 152//152 119//119 166//166
f 152//152 155//155 119//119
f 155//155 118//118 119//119
f 155//155 168//168 118//118
f 168//168 117//117 118//118
f 166//166 119//119 115//115
f 141//141 140//140 169//169
f 142//142 169//169 170//170
f 141//141 169//169 142//142
f 169//169 143//143 171//171
f 140//140 143//143 169//169
f 171//171 144//144 172//172
f 143//143 144//144 171//171
f 169//169 171//171 173//173
f 173//173 170//170 169//169
f 171//171 172//172 174//174
f 174//174 173//173 171//171
f 172//172 144//144 145//145
f 175//175 174//174 146//146
f 174//174 172//172 146//146
f 172//172 145//145 146//146
f 175//175 146//146 147//147
f 142//142 170//170 176//176
f 176//176 148//148 142//142
f 149//149 148//148 176//176
f 176//176 173//173 177//177
f 170//170 173//173 176//176
f 177//177 174//174 178//178
f 173//173 174//174 177//177
f 150//150 176//176 177//177
f 149//149 176//176 150//150
f 179//179 177//177 178//178
f 179//179 150//150 177//177
f 179//179 151//151 150//150
f 152//152 151//151 179//179
f 154//154 178//178 153//153
f 178//178 175//175 153//153
f 178//178 174//174 175//175
f 175//175 147//147 153//153
f 178//178 154//154 155//155
f 155//155 179//179 178//178
f 179//179 155//155 152//152
